<svg width="76" height="30" viewBox="0 0 76 30" xmlns="http://www.w3.org/2000/svg" xmlns:xlink="http://www.w3.org/1999/xlink"><title>logotype</title><desc>Created using Figma</desc><g fill="#0C29D0"><use xlink:href="#a"/><use xlink:href="#b"/><use xlink:href="#c"/><use xlink:href="#d"/><use xlink:href="#e"/></g><defs><path id="a" d="M10.97 8.346C4.57 8.346 0 13.071 0 19.173 0 25.276 4.57 30 10.97 30c6.359 0 10.93-4.724 10.93-10.827 0-6.102-4.571-10.827-10.93-10.827zm5.167 10.827c0 3.386-2.067 6.024-5.167 6.024-3.1 0-5.207-2.638-5.207-6.024S7.87 13.15 10.97 13.15c3.1 0 5.167 2.637 5.167 6.023z"/><path id="b" d="M30.81 0h-5.644v29.528h5.644V0z"/><path id="c" d="M41.155 29.528V8.818H35.51v20.71h5.644zm0-23.583V1.18H35.51v4.764h5.644z"/><path id="d" d="M60.323 11.063c-1.948-1.811-4.452-2.717-7.234-2.717-3.816 0-7.472 2.126-7.472 6.339 0 3.622 2.742 5.04 5.246 6.102 2.067.906 3.975 1.536 3.975 2.992 0 1.26-1.51 1.811-2.663 1.811-2.027 0-3.339-.905-4.928-2.44l-3.22 3.307C46.332 28.74 49.194 30 52.453 30c4.054 0 8.029-2.087 8.029-6.654 0-3.937-3.418-5.275-6.121-6.378-1.749-.708-3.299-1.377-3.299-2.677 0-.984.954-1.575 2.027-1.575 1.59 0 3.06.788 4.133 1.733l3.1-3.386z"/><path id="e" d="M75.404 13.465V8.819h-5.326V4.252h-4.77l-.874 4.567H61.93v4.646h2.504v8.622c0 1.22.08 2.44.398 3.464.755 2.677 2.94 4.449 6.2 4.449 1.63 0 3.617-.433 4.968-1.22l-1.749-4.134c-.715.354-1.39.59-2.265.59-1.193 0-1.67-.748-1.829-1.968-.08-.59-.08-1.142-.08-1.772v-8.031h5.327z"/></defs></svg>